# xmcd
#
# Track frame offsets: 
#        150
#        12382
#        22650
#        41765
#        55738
#        65585
#        84896
#        95537
#        106495
#        118722
#        130620
#        148119
#        163264
#
# Disc length: 2472 seconds
#
# Revision: 0
# Processed by: cddbd v1.5.2PL0 Copyright (c) Steve Scherf et al.
# Submitted via: ExactAudioCopy v0.99pb5
#
DISCID=a809a60d
DTITLE=Various Artist - Beginner's guide to Country
DYEAR=2012
DGENRE=Country
TTITLE0=Merle Haggard - Silver wings
TTITLE1=Jody Miller - Queen of the house
TTITLE2=Bobbie Gentry - Ode to Billie Joe
TTITLE3=Glen Campbell - Wichita lineman
TTITLE4=Anne Murray - Snowbird
TTITLE5=Bobbie Gentry - Fancy
TTITLE6=Charlie Louvin and Melba Montgomery - Something to brag about
TTITLE7=Stoney Edwards - She's my rock
TTITLE8=Merle Haggard - If we make it through december
TTITLE9=Billy "Crash" Craddock - I cheated on a good woman's love
TTITLE10=Linda Hargrove - Mexican love songs
TTITLE11=Gene Watson - Love in the hot afternoon
TTITLE12=Loonie Mack - Running wild
EXTD=
EXTT0=
EXTT1=
EXTT2=
EXTT3=
EXTT4=
EXTT5=
EXTT6=
EXTT7=
EXTT8=
EXTT9=
EXTT10=
EXTT11=
EXTT12=
PLAYORDER=
